<?xml version="1.0" encoding="utf-8"?>
<!-- Generator: Adobe Illustrator 24.1.0, SVG Export Plug-In . SVG Version: 6.00 Build 0)  -->
<svg version="1.1" id="レイヤー_1" xmlns="http://www.w3.org/2000/svg" xmlns:xlink="http://www.w3.org/1999/xlink" x="0px"
	 y="0px" viewBox="0 0 16 16" style="enable-background:new 0 0 16 16;" xml:space="preserve">
<style type="text/css">
	.st0{fill:#0099D9;}
	.st1{fill:#FFE100;}
	.st2{fill:#FA422B;}
	.st3{fill:#55417D;}
	.st4{fill:#FFAE21;}
	.st5{fill:#20C960;}
	.st6{fill:#5DD9CB;}
	.st7{fill:#188EBD;}
	.st8{fill:none;stroke:#000000;stroke-width:2;stroke-linecap:round;stroke-linejoin:round;stroke-miterlimit:10;}
	.st9{fill:none;}
	.st10{fill:#1877F2;}
	.st11{fill:#FFFFFF;}
	.st12{fill:none;stroke:#000000;stroke-width:2;stroke-linecap:round;stroke-linejoin:round;}
	.st13{fill:none;stroke:#231815;stroke-width:2;stroke-linecap:round;stroke-linejoin:round;}
	.st14{fill:#1F286F;}
	.st15{fill:none;stroke:#000000;stroke-width:2.2;stroke-linecap:round;stroke-linejoin:round;stroke-miterlimit:10;}
	.st16{fill:#000066;}
	.st17{enable-background:new    ;}
	.st18{fill:#1DA1F2;}
	.st19{fill:#FF0000;}
</style>
<path id="パス_64_1_" class="st9" d="M0,0h16v16H0V0z"/>
<path id="パス_65_1_" class="st14" d="M12.9,10.21l-1.72-0.2c-0.41-0.05-0.82,0.09-1.11,0.39l-1.25,1.25
	C6.9,10.66,5.34,9.1,4.36,7.18l1.25-1.25C5.9,5.63,6.05,5.23,6,4.82L5.8,3.11c-0.08-0.68-0.66-1.2-1.35-1.2H3.28
	C2.54,1.9,1.93,2.5,1.93,3.24c0,0.02,0,0.05,0,0.07C2.29,9.1,6.9,13.71,12.69,14.07c0.74,0.03,1.37-0.55,1.4-1.29
	c0-0.02,0-0.05,0-0.07v-1.17C14.09,10.86,13.58,10.28,12.9,10.21z"/>
</svg>
